# xmcd CD database file
#
# Track frame offsets:
#	150
#	12040
#	27757
#	41694
#	55054
#	67116
#	83408
#	96043
#	112224
#	124343
#	142455
#	154115
#	167692
#	179637
#	191311
#
# Disc length: 2736 seconds
#
# Revision: 1
# Processed by: cddbd v1.5.2PL0 Copyright (c) Steve Scherf et al.
# Submitted via: CDex 1.51
#
DISCID=cd0aae0f
DTITLE=Chet Baker - Vol.04 - My Funny Valentine
DYEAR=1900
DGENRE=Jazz
TTITLE0=I'm Thru With Love
TTITLE1=You Don't Know What Love Is
TTITLE2=You Better Go Now
TTITLE3=Love Walked In
TTITLE4=What A Diff'rence A Day Made
TTITLE5=I Married An Angel
TTITLE6=I Love You
TTITLE7=Why Shouldn't I ¿
TTITLE8=Trickleydidlier
TTITLE9=The Wind
TTITLE10=A Little Duet For Zoot And Chet
TTITLE11=Imagination
TTITLE12=Look For The Silver Lining
TTITLE13=Time After Time
TTITLE14=But Not For Me
EXTD=
EXTT0=
EXTT1=
EXTT2=
EXTT3=
EXTT4=
EXTT5=
EXTT6=
EXTT7=
EXTT8=
EXTT9=
EXTT10=
EXTT11=
EXTT12=
EXTT13=
EXTT14=
PLAYORDER=
